<svg xmlns="http://www.w3.org/2000/svg" xmlns:xlink="http://www.w3.org/1999/xlink" id="Layer_1" x="0px" y="0px" viewBox="0 0 500 600" style="enable-background:new 0 0 500 600;" xml:space="preserve"><style type="text/css">	.st0{fill:#FFFFFF;}</style><path class="st0" d="M497.3,256.9c-0.5-0.6-1.2-0.8-2.3-0.7l0,0c-2,0.8-3.1,3.3-4.1,5.6l-0.2,0.5c-2.1,4.6-3.7,8.7-5,13 c-0.3,0.9-0.5,1.8-0.8,2.6c-0.9,3.2-1.8,6.3-3.6,8.3c-0.1-1.7-1.1-3.2-2.6-4c-1.7-0.9-3.7-0.8-5.4,0.4c-3,1.8-4.8,4.7-6.5,7.5 c-0.4,0.6-0.8,1.3-1.2,1.9c-0.1,0.1-10.5,13.7-15.7,15.9c-0.6-1-0.9-2.5-0.9-4.4c0-7.8,2.4-15,4.6-21.1c3-8.4,5.7-13.4,7.2-16.4 c1.3-2.5,1.9-3.7,1.7-4.6c-0.1-0.4-0.4-0.7-1-1c-1.8-0.9-3.5,1.9-4.4,3.2c-3.1,5-5.5,11.3-7.1,15.6l-0.1,0.4 c-2.2,6.1-5.4,15.4-5.4,24.5c0,1.9,0.4,6.6,3.5,8c3.8,1.8,7.8-2.9,11.4-7c1-1.1,1.9-2.2,2.8-3.1c-0.5,3.2,0.3,6.7,3.3,7.3 c0.1,0,0.1,0,0.2,0c1.2,0.1,4.3,0.2,10.8-7.8c0.5-0.6,0.9-1.2,1.3-1.9c0.3-0.5,0.7-1,1-1.4c0.3,0.1,0.9,0.2,1.3,0.1 c-0.1,0.5-0.1,1-0.2,1.6c-0.7,4.8-1.7,11.4,2.4,12.7l0.1,0c0,0,0.1,0,0.1,0c1.7,0,2.6-0.9,2.7-2.5c0-0.8-0.4-1.1-0.8-1.3 c-0.3-0.2-0.5-0.3-0.6-0.6c-0.1-7.2,1.4-13.5,2.9-19.6c0.4-1.5,0.7-3,1.1-4.6c2.1-3.6,3.8-7.6,5.6-11.5l0.5-1.2l0.1-0.2 c0.8-2,1.7-4.4,2.5-6.7l0.1-0.4C497.3,262.3,498.6,258.5,497.3,256.9z M477.1,292.8l-0.5,0.8c-2.7,4.1-5.5,8.3-9.8,10.9 c-0.2-3.9,1.4-7.6,3-10.7c2-3.9,4.2-6.5,6.7-7.8c0.7,1.1,0.7,3,0.6,4.8C477.1,291.5,477.1,292.2,477.1,292.8z M388.5,278.2 c2,2.5-2.4,17.4-2.4,17.6c-1.8,6-4.9,13.6-9,15.1c-1.4,0.5-2.8,0.3-4.2-0.7l0,0c-3.3-3.9-3.4-11-3.4-18c-2.3,2.6-4.4,5.7-6.4,8.6 c-4.3,6.1-8,11.5-11.9,11.5c-0.1,0-0.2,0-0.2,0l-0.2,0l0-0.1c0,0,0,0-0.1,0c-0.4-0.1-1.5-0.5-2.1-2.7l0,0l0-0.1 c0.1-2.7,0.3-8.3,8.6-25.9c0.2-0.5,0.4-1,0.7-1.6c1.1-2.5,2.4-5.6,4.2-5.9c0.7-0.1,1.3,0.1,1.9,0.5c0.4,0.3,0.7,0.8,0.7,1.3 c0.1,1.2-0.7,2.2-1.4,3.2c-0.6,0.8-1.1,1.5-1.2,2.3c0,0.2,0,0.5,0.1,0.7c0.2,0.8,0.5,1.8-1.6,2.6l-0.3,0.8 c-2.5,5.8-5.1,11.8-6.8,18.7c3.1-3.2,5.9-7.2,8.6-11.1c1.3-1.8,2.5-3.7,3.9-5.4c0.2-0.2,0.3-0.5,0.5-0.7c1.2-1.7,2.7-3.7,5.1-3.8 c1.4,0.1,2.4,1.4,2.6,3.5c0.2,1.8,0.2,3.9,0.2,6.1c0,4.7,0,9.6,1.7,12c2.3-2,3.5-5.3,4.7-8.4c0.3-0.9,0.7-1.8,1.1-2.7l0.6-1.9 c1.1-3.7,2.2-7.5,3-11.5c-0.6-0.5-0.9-1.2-0.8-2c0.2-1.2,1.2-2.5,2.3-2.7C387.3,277.3,388,277.6,388.5,278.2z M441.6,280.6 c-1.8-0.8-3.7-0.1-4.7,0.4c-4.9,2.5-8.6,8.5-11.5,13.4c-0.4,0.6-0.7,1.1-1,1.7c0.3-1.3,0.7-2.5,1.1-3.8c0.3-1.1,0.7-2.3,1-3.5 c0.1-0.5,0.3-1.2,0.6-1.8c0.7-1.9,1.6-4.2,0.4-5.6c-1.2-1.3-2.4-0.3-3.4,0.4c-0.3,0.3-0.6,0.5-0.9,0.7c-4.1,2.3-9.3,3.6-16.4,4.2 c-0.9-2.8-2.1-4.4-3.7-5.1c-1.9-0.5-3.8,0.4-5.9,3.1c-3.4,4.2-7,12-7,18.3c0,3.7,1.6,6,4.2,6.2c2.4,0.1,5.3-1.6,7.7-4.7 c2.7-3.5,4.5-8.3,5.2-13.7c6.1-0.7,11-2.2,15.4-3.8c-1.1,3.3-2.1,6.7-3.1,10.7c-0.1,0.2-0.1,0.5-0.2,0.7c-0.7,2.8-2,7.9-0.6,10.2 c0.3,0.6,0.8,0.9,1.5,1c0.2,0.1,0.5,0.1,0.7,0.1c2.1,0,3.1-2.3,4.7-6c1-2.2,2.1-4.9,3.9-8c0.3-0.5,0.6-1,0.9-1.5 c2.5-4.1,5.1-8.3,9.7-10.4c0.5,0.3,0.7,0.9,0.9,1.5c0.3,0.8,0.7,1.8,1.8,1.8c1.1,0,1.5-0.6,1.6-1.1 C444.8,284.3,442.8,281.2,441.6,280.6z M403,291c-1.3,7.2-3.8,11.5-8.1,13.6c-0.8-5.3,1.4-9.6,3.4-13.4c0.3-0.6,0.6-1.2,0.9-1.8 C400.2,290.3,401.6,290.7,403,291z M323.2,283.5c-4,0.4-6.4,2.5-8.8,4.6c-0.7,0.6-1.4,1.2-2.1,1.8c0.2-0.4,0.3-0.9,0.5-1.3 c0.6-1.6,1.3-3.2,0.8-4.3c-0.2-0.5-0.6-0.8-1.2-1.1c-0.5-0.2-0.9-0.2-1.4,0c-1.3,0.6-2,2.7-2.6,4.6c-0.3,0.8-0.5,1.6-0.8,2.1 c-2.7,1.8-5.2,3.8-7.6,5.7c-0.5,0.4-0.9,0.8-1.4,1.1c-0.4,0.3-0.8,0.6-1.1,0.9c-2.5,2-5.1,4.1-8.3,5.2c-0.1-3.9,0.9-7.4,1.7-10.3 c0.9-3.3,1.6-5.8,0.2-7c-0.5-0.4-1.1-0.6-1.7-0.5c-1.9,0.3-3.7,3.3-4.2,4.3c-0.1,0.1-0.1,0.2-0.1,0.2c-2.9,4.3-6.1,9.1-9.9,13 c-0.1,0.1-0.2,0.2-0.3,0.3c-0.5,0.6-1.1,1.2-1.8,1.4c0.2-5.5,2.3-10.7,3.9-14.8c1.7-4.4,3-7.5,1-8.5c-1.3-0.7-3.6,0.7-6.5,2.4 c-3.3,1.9-7.3,4.3-11,4.3c-1.1-1.8-2.4-3.6-4.6-4c-3.2-0.6-5.6,2.1-7.5,4.2c-0.6,0.7-1.2,1.3-1.7,1.8c-0.7,0.6-1.3,1.1-2,1.7 c-1.7,1.4-3.5,2.9-5.3,4.3c-2.4,1.8-4.8,3.7-7.1,5.6c-2.3,1.9-4.8,3.8-7.1,5.5c0.3-0.6,0.5-1.2,0.8-1.7c4.4-9.6,8.9-19.6,5.4-21.6 c-1.7-1-4.3,0.7-7.4,5c-1.3,1.4-2.6,2.8-3.8,4.2c-3.9,4.5-8,9.2-13.7,12.1c0.2-4.3,1.7-7.8,3.2-11.2c0.5-1.2,1.1-2.4,1.5-3.6 c1.5-0.1,1.6-1,1.6-2c0-0.4,0-0.8,0.1-1.2c0.1-0.4,0.3-0.7,0.5-1c0.3-0.5,0.6-1,0.4-1.7c-0.3-1.1-1.1-1.7-2.3-1.8 c-0.7,0.1-1.2,0.4-1.6,0.9c-0.4,0.4-8,13.9-7.8,21.2c0.1,2.6,1.2,4.3,3.3,4.9c2.9,0.2,4.9-1.4,6.7-2.7l0.4-0.3 c5.4-4.1,9.7-9,14.3-14.2c-0.5,1.8-2.4,7-8.3,18.5c-0.9,0.6-1.8,1.3-2.6,1.9c-7.3,5.3-14.9,10.7-20.4,18.3c-2.2,3-6.8,10.3-3.2,14.2 c0.8,0.8,1.7,1.3,2.9,1.3c0.2,0,0.4,0,0.5,0c5.6-0.6,14.3-11.1,25.2-30.3c6.9-6,14.8-12.9,22.6-18.8c-0.7,1.9-2.1,6.4-0.7,9.6 c0.6,1.5,1.8,2.6,3.4,3.2l0.1,0c3.8,0.2,6.4-1.9,8.2-3.7c3.3-3.3,5.8-8.6,6.8-14.4c4.4-0.5,7.8-2.6,10.8-4.3 c0.7-0.4,1.3-0.8,1.9-1.1c-0.3,0.8-0.7,1.6-1.1,2.5c-2,4.4-4.4,9.9-3.9,15.4c0.1,1.3,0.5,3.1,1.8,4c0.9,0.6,2,0.8,3.4,0.5 c3.4-0.8,7.4-6.5,10.2-10.3c0.5-0.7,1-1.4,1.4-1.9c-0.6,3.3-1.1,7.6,1,9.6c3.1,2.2,5.9,0,8.2-1.7l0.4-0.3c2-1.5,4.1-3.3,6.1-5 c1.8-1.5,3.5-2.9,5-4.1c-0.7,2.5-1.4,4.5-2,6.2c-1.2,3.4-1.9,5.2,0,6.1c0.4,0.2,0.8,0.2,1.3,0.2c1.2-0.1,1.5-0.9,2.2-2.4 c0.8-1.9,2-5,5.9-9.9c0.3-0.3,0.6-0.6,0.9-1c1.2-1.2,2.5-2.6,4.2-4c0.2-0.2,0.4-0.3,0.6-0.5c1.6-1.4,3.7-3.2,5.8-2.9 c0.4,0.1,0.8,0.3,1.1,0.6c0.7,0.6,1.5,1.2,2.7,0.3l0,0c0.4-0.5,0.4-1.2,0-1.9C327.9,284.6,325.5,283.3,323.2,283.5z M256.1,292.1 c-0.7,4.7-2.7,8.8-5.6,11.5c-1.3,1.3-2.6,2-3.9,2.2c-1.3-6.2,4.1-13.4,6.1-15.8C253.3,290.9,254.4,291.8,256.1,292.1z M213.4,319.6 c-9.3,15.7-15.1,20.8-18.4,22.3C195.6,337.5,199.3,330,213.4,319.6z M181.3,297.1c-0.8-0.4-2.1,0.1-2.8,0.4 c-4.9,2.3-10.4,4.5-10.4,4.5c-0.2,0-0.5,0.2-0.9,0.3c-10.3,3.7-16,4.5-17.1,2.5c-0.9-1.6-0.3-4.3,0.5-5.7c4.7-0.6,8.7-2.5,11.7-4.1 c6.5-3.6,8.2-6.6,8.5-8.6c0.2-1.4-0.3-2.6-1.3-3.6c-1.2-1.2-3.1-1.7-5.1-1.6c-3.3,0.3-8.6,2.4-15.4,11.4c-1.7-0.1-3.1,1-3.5,2.8 c-0.1,0.9,0.2,1.4,0.6,1.9c0.1,0.2,0.2,0.3,0.3,0.5c-1.6,3-1.5,8.6,1,10.6c1.5,1.2,3.2,1.8,5.3,1.8c0.3,0,0.7,0,1,0 c3.4-0.3,6.8-1.5,10.1-2.8c0.5-0.2,1-0.4,1.6-0.6c8.4-3.1,11.1-4.5,13-5.6c0.3-0.2,0.6-0.3,0.9-0.5c0.2-0.1,0.4-0.2,0.7-0.3 c1-0.5,2.3-1,2.2-2.2C181.9,297.7,181.7,297.3,181.3,297.1z M153.5,294c2-3,6.4-8.8,11.1-9c1,0,1.7,0.1,2.1,0.6 c-0.6,1.9-2.2,2.8-3.9,3.8c-0.7,0.4-1.4,0.8-2.1,1.3C158.7,291.8,156.2,293,153.5,294z M77.5,304.8c-1,5.7-1.9,11.8-0.9,16.9 c0,0,0,0,0.3-0.1c0.4-0.2,1.2-0.5,2.1,0.5c0.5,0.6,0.6,1.5,0.1,2.3c-0.5,0.9-1.6,1.7-3,1.4c-5-1.4-4.4-8.7-4-13.5 c1.2-14.9,5.1-27.9,8.9-40.5c0.2-0.8,0.5-1.6,0.7-2.3c-6,6.9-11.8,14.6-17.5,22c-4.2,5.6-8.6,11.4-13.1,16.8 c-0.4,0.4-0.7,0.9-1.1,1.3c-1.4,1.7-2.8,3.5-4.4,5l-0.1,0.1c-1.8,1.7-5.2,4.9-8.4,4c-0.9-0.2-1.6-0.8-2.1-1.7 c-2.9-5.1,1.2-19.8,3.3-27.6c0.3-1.1,0.6-2,0.8-2.7c1.5-5.6,3.2-11.1,4.9-16.5c0.8-2.5,1.7-5.2,2.5-7.8c-0.6,0.6-1.1,1.3-1.7,2.1 c-0.2,0.3-0.4,0.6-0.6,0.9c-11.6,15.9-22.3,33-32.7,52.4c-0.5,0.9-0.9,1.8-1.4,2.9c-0.2,0.5-0.5,1.1-0.7,1.6 c-0.3,0.6-0.6,1.1-0.9,1.7c-0.5,1-1,1.9-1.2,2.7c-0.1,0.3-0.1,0.6-0.1,1c0,0.5,0,1-0.3,1.5c-0.5,0.9-1.5,1.5-2.6,1.5c0,0,0,0,0,0 c-0.9,0-1.7-0.5-2.1-1.3l0-0.1c-0.4-1.8,0.5-3.6,1.2-5.1c0.1-0.3,0.3-0.6,0.4-0.9c5.4-11.9,12.2-23.2,18.8-34.1l0.1-0.2 c7.5-12.4,14.7-22.7,21.8-31.5l0.1-0.1c1.2-1.5,2.5-3.1,4-3.7c0.5-0.2,1.3-0.3,2.1,0.1c0.6,0.3,1.1,0.8,1.4,1.6 c0.7,1.8,0.1,3.8-0.5,5.5c-0.1,0.4-0.2,0.8-0.3,1.1c-1.3,4.7-2.7,9.3-4.1,13.8c-2.2,7.2-4.4,14.6-6.3,22.4c-0.2,0.6-0.3,1.3-0.5,2 c-1.1,4.4-2.2,8.9-1.8,13.8c1.9-0.7,3.4-2.3,4.9-3.9c0.5-0.5,1.1-1.1,1.6-1.6l0.7-0.8c1.7-1.9,3.6-3.8,5.1-5.9 c5.4-6.3,10.7-13,15.8-19.5c2.2-2.8,4.5-5.7,6.7-8.5c0.5-0.6,1-1.3,1.5-1.9c1.3-1.7,2.7-3.4,4.1-5.2c0.7-0.8,1.4-1.7,2.1-2.6 c0.2-0.3,0.5-0.6,0.7-0.9c0.1-0.1,0.2-0.3,0.4-0.5c0.8-1.1,1.9-2.4,3.3-2.4c0.7,0,1.2,0.3,1.5,0.8c1.1,1.5,0.3,4.8-0.1,6.2l-0.9,3 C83,281.3,79.7,292.6,77.5,304.8z M151.1,277.4c-0.1-0.4-0.3-0.8-0.7-1c-0.5-0.3-1.2-0.4-2-0.1c-2.6,1.3-10.9,10.8-15.6,16.3 c-2.1,2.1-4,4.5-5.9,6.8c-2.7,3.3-5.6,6.8-8.8,9.4c0.7-5.7,2.4-10.6,4.1-15.4c0.6-1.8,1.3-3.6,1.9-5.5c0.1-0.2,0.2-0.5,0.2-0.7 c0.6-1.8,1.3-4,0.6-5.9c-0.2-0.6-0.6-1-1.2-1.3c-1.4-0.6-3.5,0.3-4.4,0.7l-0.2,0.1c-4.7,2-9.4,4-14.8,5.2c-0.5-0.8-1.2-1.4-2-1.9 c0.2-1.7-0.7-2.4-1.5-2.7c-1.9-0.7-4.9,0.4-5.8,1.8c-2.1,2.2-4.2,5.3-5.9,8.8c-1.3,2.8-4.2,9.8-2.4,14.1c0.6,1.5,1.8,2.5,3.4,3.1 c2.3,0.5,5.3-0.6,8.1-3.1c4-3.6,7.9-10.3,7.2-16.7c3.6-0.8,6.9-2.1,10.1-3.4c1.7-0.7,3.4-1.3,5-1.9c-0.6,1.8-1.2,3.7-1.9,5.7 c-0.7,2.1-1.5,4.2-2.2,6.5c-0.2,0.8-0.5,1.5-0.8,2.3c-1.3,3.7-2.6,7.5-2.3,11.4c0.1,1.6,0.9,3.1,1.8,3.6c0.5,0.3,1.1,0.4,1.7,0.4 c2.3,0,4.6-2.1,5.7-3.1c1.5-1.4,4.5-5,8.2-9.6c3.4-4.1,7.6-9.3,12.1-14.3c3.1-3.6,5.1-5.5,6.2-6.7 C150.8,278.7,151.1,278.4,151.1,277.4z M91.6,304.8c-0.2-0.1-0.4-0.2-0.4-0.5c-1.1-5.7,3-12,4.8-14.7c0.3-0.5,0.6-0.9,0.7-1.1 c1.3,1.3,3.4,1.5,5.2,1.5c-0.1,4-1.9,7.1-3.5,9.3C95.9,302.7,92.7,305,91.6,304.8z"></path></svg>